<svg xmlns="http://www.w3.org/2000/svg" xmlns:xlink="http://www.w3.org/1999/xlink" version="1.1" width="17.90000057220459" height="18" viewBox="0.04999995231628418 0 17.90000057220459 18">
  <!-- Exported by Scratch - http://scratch.mit.edu/ -->
  <path id="ID0.030521284323185682" fill="#00FFFF" stroke="#00FFFF" stroke-width="2" d="M 9.025 4.95 C 10.135 4.95 11.142 5.404 11.87 6.137 C 12.599 6.87 13.05 7.883 13.05 9 C 13.05 10.117 12.599 11.13 11.87 11.863 C 11.142 12.596 10.135 13.05 9.025 13.05 C 7.915 13.05 6.908 12.596 6.18 11.863 C 5.451 11.13 5 10.117 5 9 C 5 7.883 5.451 6.87 6.18 6.137 C 6.908 5.404 7.915 4.95 9.025 4.95 Z "/>
  <path id="ID0.7889922042377293" fill="#FF0000" stroke="#FF0000" stroke-width="2" d="M 9 1 C 11.193 1 13.181 1.896 14.62 3.345 C 16.059 4.793 16.95 6.793 16.95 9 C 16.95 11.207 16.059 13.207 14.62 14.655 C 13.181 16.104 11.193 17 9 17 C 6.807 17 4.819 16.104 3.38 14.655 C 1.941 13.207 1.05 11.207 1.05 9 C 1.05 6.793 1.941 4.793 3.38 3.345 C 4.819 1.896 6.807 1 9 1 Z "/>
</svg>