<svg xmlns="http://www.w3.org/2000/svg" xmlns:xlink="http://www.w3.org/1999/xlink" version="1.1" width="17.90000057220459" height="17.999999046325684" viewBox="0.04999995231628418 0.04999995231628418 17.90000057220459 17.999999046325684">
  <!-- Exported by Scratch - http://scratch.mit.edu/ -->
  <path id="ID0.030521284323185682" fill="#FF9400" stroke="#FF9400" stroke-width="2" d="M 9.025 4.95 C 10.135 4.95 11.142 5.404 11.87 6.137 C 12.599 6.87 13.05 7.883 13.05 9 C 13.05 10.117 12.599 11.13 11.87 11.863 C 11.142 12.596 10.135 13.05 9.025 13.05 C 7.915 13.05 6.908 12.596 6.18 11.863 C 5.451 11.13 5 10.117 5 9 C 5 7.883 5.451 6.87 6.18 6.137 C 6.908 5.404 7.915 4.95 9.025 4.95 Z "/>
  <path id="ID0.7889922042377293" fill="#660000" stroke="#990000" stroke-width="2" d="M 9 1.05 C 11.193 1.05 13.181 1.946 14.62 3.395 C 16.059 4.843 16.95 6.843 16.95 9.05 C 16.95 11.257 16.059 13.257 14.62 14.705 C 13.181 16.154 11.193 17.05 9 17.05 C 6.807 17.05 4.819 16.154 3.38 14.705 C 1.941 13.257 1.05 11.257 1.05 9.05 C 1.05 6.843 1.941 4.843 3.38 3.395 C 4.819 1.946 6.807 1.05 9 1.05 Z "/>
</svg>